<?xml version="1.0" standalone="no"?>
<!DOCTYPE svg PUBLIC "-//W3C//DTD SVG 20010904//EN"
 "http://www.w3.org/TR/2001/REC-SVG-20010904/DTD/svg10.dtd">
<svg version="1.0" xmlns="http://www.w3.org/2000/svg"
 width="240.000000pt" height="240.000000pt" viewBox="0 0 240.000000 240.000000"
 preserveAspectRatio="xMidYMid meet">

<g transform="translate(0.000000,240.000000) scale(0.100000,-0.100000)"
fill="#000000" stroke="none">
<path d="M1044 1975 c-339 -74 -579 -391 -561 -740 29 -541 614 -856 1082
-583 87 51 207 172 258 258 162 278 116 634 -111 867 -93 95 -231 171 -357
198 -85 18 -229 18 -311 0z m320 -45 c144 -37 286 -129 372 -243 203 -268 187
-632 -39 -873 -190 -204 -456 -271 -721 -183 -134 45 -292 175 -364 300 -111
195 -119 433 -22 634 72 148 181 254 332 325 131 61 300 77 442 40z"/>
<path d="M933 1599 c-50 -25 -73 -67 -73 -137 0 -284 244 -532 525 -532 80 0
112 16 140 70 17 33 20 96 4 105 -5 4 -59 15 -119 24 -107 17 -130 15 -130
-13 0 -6 -4 -17 -9 -24 -11 -19 -98 25 -155 79 -38 34 -106 141 -106 166 0 5
16 15 35 22 28 10 34 16 30 34 -3 12 -11 64 -19 116 -19 119 -37 133 -123 90z"/>
</g>
</svg>
